<svg xmlns="http://www.w3.org/2000/svg" width="40" height="32" viewBox="0 0 40 32">
  <defs>
    <style>
      .cls-1 {
        fill: #ffce00;
        fill-rule: evenodd;
      }
    </style>
  </defs>
  <path class="cls-1" d="M433.286,3997l-2.381,4.71h-8.572A3.3,3.3,0,0,0,419,4005v20.71a3.306,3.306,0,0,0,3.333,3.29h33.334a3.306,3.306,0,0,0,3.333-3.29V4005a3.3,3.3,0,0,0-3.333-3.29H447.1l-2.381-4.71H433.286Zm5.714,9.88a8.471,8.471,0,1,1-8.571,8.47A8.519,8.519,0,0,1,439,4006.88Z" transform="translate(-419 -3997)"/>
</svg>
