<svg xmlns="http://www.w3.org/2000/svg" width="35" height="32" viewBox="0 0 35 32">
  <defs>
    <style>
      .cls-1 {
        fill: #ffce00;
        fill-rule: evenodd;
      }
    </style>
  </defs>
  <path class="cls-1" d="M734.419,4016.82a1.479,1.479,0,0,0-1.419,1.43v10.34a1.469,1.469,0,0,0,1.419,1.41h32.166a1.469,1.469,0,0,0,1.419-1.41v-10.34a1.419,1.419,0,1,0-2.838,0v8.93H735.838v-8.93a1.457,1.457,0,0,0-1.419-1.43h0ZM750.5,3998a1.581,1.581,0,0,0-.976.38l-8.042,7.53a1.612,1.612,0,0,0-.118,2.06,1.484,1.484,0,0,0,2.069-.01l5.648-5.3V4022a1.419,1.419,0,0,0,2.838,0v-19.34l5.647,5.3a1.568,1.568,0,0,0,2.07.01,1.592,1.592,0,0,0-.119-2.06l-8.042-7.53a1.4,1.4,0,0,0-.975-0.38h0Z" transform="translate(-733 -3998)"/>
</svg>
