<svg width="31" height="31" viewBox="0 0 31 31" fill="none" xmlns="http://www.w3.org/2000/svg">
<path d="M15.3836 11.6493C13.2633 11.6493 11.5329 13.3797 11.5329 15.5001C11.5329 17.6204 13.2633 19.3508 15.3836 19.3508C17.504 19.3508 19.2344 17.6204 19.2344 15.5001C19.2344 13.3797 17.504 11.6493 15.3836 11.6493ZM26.9331 15.5001C26.9331 13.9054 26.9476 12.3253 26.858 10.7335C26.7684 8.88469 26.3467 7.24385 24.9947 5.89189C23.6399 4.53703 22.0019 4.11816 20.1531 4.0286C18.5584 3.93905 16.9783 3.9535 15.3865 3.9535C13.7919 3.9535 12.2117 3.93905 10.62 4.0286C8.77117 4.11816 7.13032 4.53992 5.77836 5.89189C4.42351 7.24674 4.00463 8.88469 3.91508 10.7335C3.82553 12.3281 3.83997 13.9083 3.83997 15.5001C3.83997 17.0918 3.82553 18.6749 3.91508 20.2666C4.00463 22.1154 4.4264 23.7563 5.77836 25.1082C7.13321 26.4631 8.77117 26.882 10.62 26.9715C12.2146 27.0611 13.7948 27.0466 15.3865 27.0466C16.9812 27.0466 18.5613 27.0611 20.1531 26.9715C22.0019 26.882 23.6428 26.4602 24.9947 25.1082C26.3496 23.7534 26.7684 22.1154 26.858 20.2666C26.9504 18.6749 26.9331 17.0947 26.9331 15.5001ZM15.3836 21.425C12.1049 21.425 9.4587 18.7789 9.4587 15.5001C9.4587 12.2213 12.1049 9.57512 15.3836 9.57512C18.6624 9.57512 21.3086 12.2213 21.3086 15.5001C21.3086 18.7789 18.6624 21.425 15.3836 21.425ZM21.5513 10.7162C20.7857 10.7162 20.1675 10.098 20.1675 9.33246C20.1675 8.56692 20.7857 7.94872 21.5513 7.94872C22.3168 7.94872 22.935 8.56692 22.935 9.33246C22.9352 9.51424 22.8996 9.69427 22.8301 9.86226C22.7607 10.0302 22.6588 10.1829 22.5302 10.3114C22.4017 10.44 22.249 10.5419 22.0811 10.6113C21.9131 10.6808 21.733 10.7164 21.5513 10.7162Z" fill="black"/>
</svg>
