<svg width="24" height="24" viewBox="0 0 24 24" fill="none" xmlns="http://www.w3.org/2000/svg">
<g clip-path="url(#clip0)">
<path d="M23.4191 5.22437C22.6044 5.58541 21.7291 5.82935 20.8089 5.93961C21.7584 5.37151 22.4687 4.47738 22.8073 3.42406C21.9153 3.9539 20.9391 4.32685 19.921 4.52669C19.2364 3.7957 18.3296 3.31119 17.3414 3.14838C16.3531 2.98557 15.3388 3.15357 14.4559 3.6263C13.573 4.09902 12.8708 4.85002 12.4584 5.76271C12.046 6.67539 11.9465 7.69869 12.1753 8.67373C10.3678 8.58298 8.59967 8.1132 6.98554 7.29487C5.37141 6.47654 3.94739 5.32796 2.80588 3.92366C2.41557 4.59695 2.19115 5.37757 2.19115 6.20893C2.19071 6.95734 2.37501 7.69429 2.7277 8.35439C3.08039 9.0145 3.59056 9.57734 4.21295 9.99298C3.49115 9.97002 2.78527 9.77498 2.15407 9.42411V9.48265C2.15399 10.5323 2.51709 11.5497 3.18174 12.3622C3.84639 13.1746 4.77165 13.7321 5.80054 13.94C5.13095 14.1212 4.42893 14.1479 3.74751 14.0181C4.0378 14.9212 4.60326 15.7111 5.36473 16.2769C6.12619 16.8428 7.04555 17.1563 7.99408 17.1737C6.38389 18.4377 4.39531 19.1234 2.34825 19.1204C1.98563 19.1205 1.62332 19.0993 1.26318 19.057C3.34107 20.393 5.75989 21.102 8.23022 21.0993C16.5926 21.0993 21.1641 14.1732 21.1641 8.16633C21.1641 7.97118 21.1592 7.77407 21.1505 7.57891C22.0397 6.93585 22.8072 6.13954 23.4172 5.2273L23.4191 5.22437Z" fill="black"/>
</g>
<defs>
<clipPath id="clip0">
<rect width="23.4186" height="23.4186" fill="white" transform="translate(0.348877 0.406738)"/>
</clipPath>
</defs>
</svg>
