<svg xmlns="http://www.w3.org/2000/svg" width="563" height="479" viewBox="0 0 563 479">
  <defs>
    <style>
      .cls-1 {
        fill-rule: evenodd;
      }
    </style>
  </defs>
  <path class="cls-1" d="M649,3626a32,32,0,1,1-32,32A32,32,0,0,1,649,3626Zm0,74a58.042,58.042,0,0,1,58,58H590C590,3726,616,3700,649,3700Z" transform="translate(-365 -3460)"/>
  <path class="cls-1" d="M365,3463.43v206.16h6.859V3466.86H574.44V3460H368.43A3.427,3.427,0,0,0,365,3463.43ZM924.57,3460H718.56v6.86H921.141v202.73H928V3463.43A3.426,3.426,0,0,0,924.57,3460Zm-3.429,472.13H718.56v6.86H924.57a3.426,3.426,0,0,0,3.429-3.43V3729.4h-6.858v202.73ZM371.859,3729.4H365v206.16a3.427,3.427,0,0,0,3.43,3.43H574.44v-6.86H371.859V3729.4Z" transform="translate(-365 -3460)"/>
</svg>
